solid OBJECT
  facet normal -0 -1 0
    outer loop
      vertex 34.520000457763672 4 1
      vertex 34.569999694824219 4 1
      vertex 34.569999694824219 4 1.3500000238418579
    endloop
  endfacet
  facet normal 0 -1 0
    outer loop
      vertex 34.520000457763672 4 1
      vertex 34.569999694824219 4 1.3500000238418579
      vertex 34.520000457763672 4 1.3500000238418579
    endloop
  endfacet
  facet normal 1 0 -0
    outer loop
      vertex 34.569999694824219 4 1
      vertex 34.569999694824219 4.0500001907348633 1
      vertex 34.569999694824219 4.0500001907348633 1.3500000238418579
    endloop
  endfacet
  facet normal 1 -0 0
    outer loop
      vertex 34.569999694824219 4 1
      vertex 34.569999694824219 4.0500001907348633 1.3500000238418579
      vertex 34.569999694824219 4 1.3500000238418579
    endloop
  endfacet
  facet normal -0 1 -0
    outer loop
      vertex 34.569999694824219 4.0500001907348633 1
      vertex 34.520000457763672 4.0500001907348633 1
      vertex 34.520000457763672 4.0500001907348633 1.3500000238418579
    endloop
  endfacet
  facet normal 0 1 0
    outer loop
      vertex 34.569999694824219 4.0500001907348633 1
      vertex 34.520000457763672 4.0500001907348633 1.3500000238418579
      vertex 34.569999694824219 4.0500001907348633 1.3500000238418579
    endloop
  endfacet
  facet normal -1 0 0
    outer loop
      vertex 34.520000457763672 4.0500001907348633 1
      vertex 34.520000457763672 4 1
      vertex 34.520000457763672 4 1.3500000238418579
    endloop
  endfacet
  facet normal -1 -0 0
    outer loop
      vertex 34.520000457763672 4.0500001907348633 1
      vertex 34.520000457763672 4 1.3500000238418579
      vertex 34.520000457763672 4.0500001907348633 1.3500000238418579
    endloop
  endfacet
  facet normal 0 0 -1
    outer loop
      vertex 34.569999694824219 4 1
      vertex 34.520000457763672 4 1
      vertex 34.520000457763672 4.0500001907348633 1
    endloop
  endfacet
  facet normal -0 -0 -1
    outer loop
      vertex 34.520000457763672 4.0500001907348633 1
      vertex 34.569999694824219 4.0500001907348633 1
      vertex 34.569999694824219 4 1
    endloop
  endfacet
  facet normal -0 -0 1
    outer loop
      vertex 34.569999694824219 4 1.3500000238418579
      vertex 34.520000457763672 4.0500001907348633 1.3500000238418579
      vertex 34.520000457763672 4 1.3500000238418579
    endloop
  endfacet
  facet normal 0 0 1
    outer loop
      vertex 34.520000457763672 4.0500001907348633 1.3500000238418579
      vertex 34.569999694824219 4 1.3500000238418579
      vertex 34.569999694824219 4.0500001907348633 1.3500000238418579
    endloop
  endfacet
  facet normal -0 -1 0
    outer loop
      vertex 34.909999847412109 5.7789998054504395 1
      vertex 34.959999084472656 5.7789998054504395 1
      vertex 34.959999084472656 5.7789998054504395 1.3500000238418579
    endloop
  endfacet
  facet normal 0 -1 0
    outer loop
      vertex 34.909999847412109 5.7789998054504395 1
      vertex 34.959999084472656 5.7789998054504395 1.3500000238418579
      vertex 34.909999847412109 5.7789998054504395 1.3500000238418579
    endloop
  endfacet
  facet normal 1 0 -0
    outer loop
      vertex 34.959999084472656 5.7789998054504395 1
      vertex 34.959999084472656 5.8289999961853027 1
      vertex 34.959999084472656 5.8289999961853027 1.3500000238418579
    endloop
  endfacet
  facet normal 1 -0 0
    outer loop
      vertex 34.959999084472656 5.7789998054504395 1
      vertex 34.959999084472656 5.8289999961853027 1.3500000238418579
      vertex 34.959999084472656 5.7789998054504395 1.3500000238418579
    endloop
  endfacet
  facet normal -0 1 -0
    outer loop
      vertex 34.959999084472656 5.8289999961853027 1
      vertex 34.909999847412109 5.8289999961853027 1
      vertex 34.909999847412109 5.8289999961853027 1.3500000238418579
    endloop
  endfacet
  facet normal 0 1 0
    outer loop
      vertex 34.959999084472656 5.8289999961853027 1
      vertex 34.909999847412109 5.8289999961853027 1.3500000238418579
      vertex 34.959999084472656 5.8289999961853027 1.3500000238418579
    endloop
  endfacet
  facet normal -1 0 0
    outer loop
      vertex 34.909999847412109 5.8289999961853027 1
      vertex 34.909999847412109 5.7789998054504395 1
      vertex 34.909999847412109 5.7789998054504395 1.3500000238418579
    endloop
  endfacet
  facet normal -1 -0 0
    outer loop
      vertex 34.909999847412109 5.8289999961853027 1
      vertex 34.909999847412109 5.7789998054504395 1.3500000238418579
      vertex 34.909999847412109 5.8289999961853027 1.3500000238418579
    endloop
  endfacet
  facet normal 0 0 -1
    outer loop
      vertex 34.959999084472656 5.7789998054504395 1
      vertex 34.909999847412109 5.7789998054504395 1
      vertex 34.909999847412109 5.8289999961853027 1
    endloop
  endfacet
  facet normal -0 -0 -1
    outer loop
      vertex 34.909999847412109 5.8289999961853027 1
      vertex 34.959999084472656 5.8289999961853027 1
      vertex 34.959999084472656 5.7789998054504395 1
    endloop
  endfacet
  facet normal -0 -0 1
    outer loop
      vertex 34.959999084472656 5.7789998054504395 1.3500000238418579
      vertex 34.909999847412109 5.8289999961853027 1.3500000238418579
      vertex 34.909999847412109 5.7789998054504395 1.3500000238418579
    endloop
  endfacet
  facet normal 0 0 1
    outer loop
      vertex 34.909999847412109 5.8289999961853027 1.3500000238418579
      vertex 34.959999084472656 5.7789998054504395 1.3500000238418579
      vertex 34.959999084472656 5.8289999961853027 1.3500000238418579
    endloop
  endfacet
  facet normal -0 -1 0
    outer loop
      vertex 34.520000457763672 5.7789998054504395 1
      vertex 34.569999694824219 5.7789998054504395 1
      vertex 34.569999694824219 5.7789998054504395 1.3500000238418579
    endloop
  endfacet
  facet normal 0 -1 0
    outer loop
      vertex 34.520000457763672 5.7789998054504395 1
      vertex 34.569999694824219 5.7789998054504395 1.3500000238418579
      vertex 34.520000457763672 5.7789998054504395 1.3500000238418579
    endloop
  endfacet
  facet normal 1 0 -0
    outer loop
      vertex 34.569999694824219 5.7789998054504395 1
      vertex 34.569999694824219 5.8289999961853027 1
      vertex 34.569999694824219 5.8289999961853027 1.3500000238418579
    endloop
  endfacet
  facet normal 1 -0 0
    outer loop
      vertex 34.569999694824219 5.7789998054504395 1
      vertex 34.569999694824219 5.8289999961853027 1.3500000238418579
      vertex 34.569999694824219 5.7789998054504395 1.3500000238418579
    endloop
  endfacet
  facet normal -0 1 -0
    outer loop
      vertex 34.569999694824219 5.8289999961853027 1
      vertex 34.520000457763672 5.8289999961853027 1
      vertex 34.520000457763672 5.8289999961853027 1.3500000238418579
    endloop
  endfacet
  facet normal 0 1 0
    outer loop
      vertex 34.569999694824219 5.8289999961853027 1
      vertex 34.520000457763672 5.8289999961853027 1.3500000238418579
      vertex 34.569999694824219 5.8289999961853027 1.3500000238418579
    endloop
  endfacet
  facet normal -1 0 0
    outer loop
      vertex 34.520000457763672 5.8289999961853027 1
      vertex 34.520000457763672 5.7789998054504395 1
      vertex 34.520000457763672 5.7789998054504395 1.3500000238418579
    endloop
  endfacet
  facet normal -1 -0 0
    outer loop
      vertex 34.520000457763672 5.8289999961853027 1
      vertex 34.520000457763672 5.7789998054504395 1.3500000238418579
      vertex 34.520000457763672 5.8289999961853027 1.3500000238418579
    endloop
  endfacet
  facet normal 0 0 -1
    outer loop
      vertex 34.569999694824219 5.7789998054504395 1
      vertex 34.520000457763672 5.7789998054504395 1
      vertex 34.520000457763672 5.8289999961853027 1
    endloop
  endfacet
  facet normal -0 -0 -1
    outer loop
      vertex 34.520000457763672 5.8289999961853027 1
      vertex 34.569999694824219 5.8289999961853027 1
      vertex 34.569999694824219 5.7789998054504395 1
    endloop
  endfacet
  facet normal -0 -0 1
    outer loop
      vertex 34.569999694824219 5.7789998054504395 1.3500000238418579
      vertex 34.520000457763672 5.8289999961853027 1.3500000238418579
      vertex 34.520000457763672 5.7789998054504395 1.3500000238418579
    endloop
  endfacet
  facet normal 0 0 1
    outer loop
      vertex 34.520000457763672 5.8289999961853027 1.3500000238418579
      vertex 34.569999694824219 5.7789998054504395 1.3500000238418579
      vertex 34.569999694824219 5.8289999961853027 1.3500000238418579
    endloop
  endfacet
  facet normal -0 -1 0
    outer loop
      vertex 34.130001068115234 5.7789998054504395 1
      vertex 34.180000305175781 5.7789998054504395 1
      vertex 34.180000305175781 5.7789998054504395 1.3500000238418579
    endloop
  endfacet
  facet normal 0 -1 0
    outer loop
      vertex 34.130001068115234 5.7789998054504395 1
      vertex 34.180000305175781 5.7789998054504395 1.3500000238418579
      vertex 34.130001068115234 5.7789998054504395 1.3500000238418579
    endloop
  endfacet
  facet normal 1 0 -0
    outer loop
      vertex 34.180000305175781 5.7789998054504395 1
      vertex 34.180000305175781 5.8289999961853027 1
      vertex 34.180000305175781 5.8289999961853027 1.3500000238418579
    endloop
  endfacet
  facet normal 1 -0 0
    outer loop
      vertex 34.180000305175781 5.7789998054504395 1
      vertex 34.180000305175781 5.8289999961853027 1.3500000238418579
      vertex 34.180000305175781 5.7789998054504395 1.3500000238418579
    endloop
  endfacet
  facet normal -0 1 -0
    outer loop
      vertex 34.180000305175781 5.8289999961853027 1
      vertex 34.130001068115234 5.8289999961853027 1
      vertex 34.130001068115234 5.8289999961853027 1.3500000238418579
    endloop
  endfacet
  facet normal 0 1 0
    outer loop
      vertex 34.180000305175781 5.8289999961853027 1
      vertex 34.130001068115234 5.8289999961853027 1.3500000238418579
      vertex 34.180000305175781 5.8289999961853027 1.3500000238418579
    endloop
  endfacet
  facet normal -1 0 0
    outer loop
      vertex 34.130001068115234 5.8289999961853027 1
      vertex 34.130001068115234 5.7789998054504395 1
      vertex 34.130001068115234 5.7789998054504395 1.3500000238418579
    endloop
  endfacet
  facet normal -1 -0 0
    outer loop
      vertex 34.130001068115234 5.8289999961853027 1
      vertex 34.130001068115234 5.7789998054504395 1.3500000238418579
      vertex 34.130001068115234 5.8289999961853027 1.3500000238418579
    endloop
  endfacet
  facet normal 0 0 -1
    outer loop
      vertex 34.180000305175781 5.7789998054504395 1
      vertex 34.130001068115234 5.7789998054504395 1
      vertex 34.130001068115234 5.8289999961853027 1
    endloop
  endfacet
  facet normal -0 -0 -1
    outer loop
      vertex 34.130001068115234 5.8289999961853027 1
      vertex 34.180000305175781 5.8289999961853027 1
      vertex 34.180000305175781 5.7789998054504395 1
    endloop
  endfacet
  facet normal -0 -0 1
    outer loop
      vertex 34.180000305175781 5.7789998054504395 1.3500000238418579
      vertex 34.130001068115234 5.8289999961853027 1.3500000238418579
      vertex 34.130001068115234 5.7789998054504395 1.3500000238418579
    endloop
  endfacet
  facet normal 0 0 1
    outer loop
      vertex 34.130001068115234 5.8289999961853027 1.3500000238418579
      vertex 34.180000305175781 5.7789998054504395 1.3500000238418579
      vertex 34.180000305175781 5.8289999961853027 1.3500000238418579
    endloop
  endfacet
  facet normal -0 -1 0
    outer loop
      vertex 33.740001678466797 5.7789998054504395 1
      vertex 33.790000915527344 5.7789998054504395 1
      vertex 33.790000915527344 5.7789998054504395 1.3500000238418579
    endloop
  endfacet
  facet normal 0 -1 0
    outer loop
      vertex 33.740001678466797 5.7789998054504395 1
      vertex 33.790000915527344 5.7789998054504395 1.3500000238418579
      vertex 33.740001678466797 5.7789998054504395 1.3500000238418579
    endloop
  endfacet
  facet normal 1 0 -0
    outer loop
      vertex 33.790000915527344 5.7789998054504395 1
      vertex 33.790000915527344 5.8289999961853027 1
      vertex 33.790000915527344 5.8289999961853027 1.3500000238418579
    endloop
  endfacet
  facet normal 1 -0 0
    outer loop
      vertex 33.790000915527344 5.7789998054504395 1
      vertex 33.790000915527344 5.8289999961853027 1.3500000238418579
      vertex 33.790000915527344 5.7789998054504395 1.3500000238418579
    endloop
  endfacet
  facet normal -0 1 -0
    outer loop
      vertex 33.790000915527344 5.8289999961853027 1
      vertex 33.740001678466797 5.8289999961853027 1
      vertex 33.740001678466797 5.8289999961853027 1.3500000238418579
    endloop
  endfacet
  facet normal 0 1 0
    outer loop
      vertex 33.790000915527344 5.8289999961853027 1
      vertex 33.740001678466797 5.8289999961853027 1.3500000238418579
      vertex 33.790000915527344 5.8289999961853027 1.3500000238418579
    endloop
  endfacet
  facet normal -1 0 0
    outer loop
      vertex 33.740001678466797 5.8289999961853027 1
      vertex 33.740001678466797 5.7789998054504395 1
      vertex 33.740001678466797 5.7789998054504395 1.3500000238418579
    endloop
  endfacet
  facet normal -1 -0 0
    outer loop
      vertex 33.740001678466797 5.8289999961853027 1
      vertex 33.740001678466797 5.7789998054504395 1.3500000238418579
      vertex 33.740001678466797 5.8289999961853027 1.3500000238418579
    endloop
  endfacet
  facet normal 0 0 -1
    outer loop
      vertex 33.790000915527344 5.7789998054504395 1
      vertex 33.740001678466797 5.7789998054504395 1
      vertex 33.740001678466797 5.8289999961853027 1
    endloop
  endfacet
  facet normal -0 -0 -1
    outer loop
      vertex 33.740001678466797 5.8289999961853027 1
      vertex 33.790000915527344 5.8289999961853027 1
      vertex 33.790000915527344 5.7789998054504395 1
    endloop
  endfacet
  facet normal -0 -0 1
    outer loop
      vertex 33.790000915527344 5.7789998054504395 1.3500000238418579
      vertex 33.740001678466797 5.8289999961853027 1.3500000238418579
      vertex 33.740001678466797 5.7789998054504395 1.3500000238418579
    endloop
  endfacet
  facet normal 0 0 1
    outer loop
      vertex 33.740001678466797 5.8289999961853027 1.3500000238418579
      vertex 33.790000915527344 5.7789998054504395 1.3500000238418579
      vertex 33.790000915527344 5.8289999961853027 1.3500000238418579
    endloop
  endfacet
  facet normal -0 -1 0
    outer loop
      vertex 34.909999847412109 5.185999870300293 1
      vertex 34.959999084472656 5.185999870300293 1
      vertex 34.959999084472656 5.185999870300293 1.3500000238418579
    endloop
  endfacet
  facet normal 0 -1 0
    outer loop
      vertex 34.909999847412109 5.185999870300293 1
      vertex 34.959999084472656 5.185999870300293 1.3500000238418579
      vertex 34.909999847412109 5.185999870300293 1.3500000238418579
    endloop
  endfacet
  facet normal 1 0 -0
    outer loop
      vertex 34.959999084472656 5.185999870300293 1
      vertex 34.959999084472656 5.2360000610351562 1
      vertex 34.959999084472656 5.2360000610351562 1.3500000238418579
    endloop
  endfacet
  facet normal 1 -0 0
    outer loop
      vertex 34.959999084472656 5.185999870300293 1
      vertex 34.959999084472656 5.2360000610351562 1.3500000238418579
      vertex 34.959999084472656 5.185999870300293 1.3500000238418579
    endloop
  endfacet
  facet normal -0 1 -0
    outer loop
      vertex 34.959999084472656 5.2360000610351562 1
      vertex 34.909999847412109 5.2360000610351562 1
      vertex 34.909999847412109 5.2360000610351562 1.3500000238418579
    endloop
  endfacet
  facet normal 0 1 0
    outer loop
      vertex 34.959999084472656 5.2360000610351562 1
      vertex 34.909999847412109 5.2360000610351562 1.3500000238418579
      vertex 34.959999084472656 5.2360000610351562 1.3500000238418579
    endloop
  endfacet
  facet normal -1 0 0
    outer loop
      vertex 34.909999847412109 5.2360000610351562 1
      vertex 34.909999847412109 5.185999870300293 1
      vertex 34.909999847412109 5.185999870300293 1.3500000238418579
    endloop
  endfacet
  facet normal -1 -0 0
    outer loop
      vertex 34.909999847412109 5.2360000610351562 1
      vertex 34.909999847412109 5.185999870300293 1.3500000238418579
      vertex 34.909999847412109 5.2360000610351562 1.3500000238418579
    endloop
  endfacet
  facet normal 0 0 -1
    outer loop
      vertex 34.959999084472656 5.185999870300293 1
      vertex 34.909999847412109 5.185999870300293 1
      vertex 34.909999847412109 5.2360000610351562 1
    endloop
  endfacet
  facet normal -0 -0 -1
    outer loop
      vertex 34.909999847412109 5.2360000610351562 1
      vertex 34.959999084472656 5.2360000610351562 1
      vertex 34.959999084472656 5.185999870300293 1
    endloop
  endfacet
  facet normal -0 -0 1
    outer loop
      vertex 34.959999084472656 5.185999870300293 1.3500000238418579
      vertex 34.909999847412109 5.2360000610351562 1.3500000238418579
      vertex 34.909999847412109 5.185999870300293 1.3500000238418579
    endloop
  endfacet
  facet normal 0 0 1
    outer loop
      vertex 34.909999847412109 5.2360000610351562 1.3500000238418579
      vertex 34.959999084472656 5.185999870300293 1.3500000238418579
      vertex 34.959999084472656 5.2360000610351562 1.3500000238418579
    endloop
  endfacet
  facet normal -0 -1 0
    outer loop
      vertex 34.520000457763672 5.185999870300293 1
      vertex 34.569999694824219 5.185999870300293 1
      vertex 34.569999694824219 5.185999870300293 1.3500000238418579
    endloop
  endfacet
  facet normal 0 -1 0
    outer loop
      vertex 34.520000457763672 5.185999870300293 1
      vertex 34.569999694824219 5.185999870300293 1.3500000238418579
      vertex 34.520000457763672 5.185999870300293 1.3500000238418579
    endloop
  endfacet
  facet normal 1 0 -0
    outer loop
      vertex 34.569999694824219 5.185999870300293 1
      vertex 34.569999694824219 5.2360000610351562 1
      vertex 34.569999694824219 5.2360000610351562 1.3500000238418579
    endloop
  endfacet
  facet normal 1 -0 0
    outer loop
      vertex 34.569999694824219 5.185999870300293 1
      vertex 34.569999694824219 5.2360000610351562 1.3500000238418579
      vertex 34.569999694824219 5.185999870300293 1.3500000238418579
    endloop
  endfacet
  facet normal -0 1 -0
    outer loop
      vertex 34.569999694824219 5.2360000610351562 1
      vertex 34.520000457763672 5.2360000610351562 1
      vertex 34.520000457763672 5.2360000610351562 1.3500000238418579
    endloop
  endfacet
  facet normal 0 1 0
    outer loop
      vertex 34.569999694824219 5.2360000610351562 1
      vertex 34.520000457763672 5.2360000610351562 1.3500000238418579
      vertex 34.569999694824219 5.2360000610351562 1.3500000238418579
    endloop
  endfacet
  facet normal -1 0 0
    outer loop
      vertex 34.520000457763672 5.2360000610351562 1
      vertex 34.520000457763672 5.185999870300293 1
      vertex 34.520000457763672 5.185999870300293 1.3500000238418579
    endloop
  endfacet
  facet normal -1 -0 0
    outer loop
      vertex 34.520000457763672 5.2360000610351562 1
      vertex 34.520000457763672 5.185999870300293 1.3500000238418579
      vertex 34.520000457763672 5.2360000610351562 1.3500000238418579
    endloop
  endfacet
  facet normal 0 0 -1
    outer loop
      vertex 34.569999694824219 5.185999870300293 1
      vertex 34.520000457763672 5.185999870300293 1
      vertex 34.520000457763672 5.2360000610351562 1
    endloop
  endfacet
  facet normal -0 -0 -1
    outer loop
      vertex 34.520000457763672 5.2360000610351562 1
      vertex 34.569999694824219 5.2360000610351562 1
      vertex 34.569999694824219 5.185999870300293 1
    endloop
  endfacet
  facet normal -0 -0 1
    outer loop
      vertex 34.569999694824219 5.185999870300293 1.3500000238418579
      vertex 34.520000457763672 5.2360000610351562 1.3500000238418579
      vertex 34.520000457763672 5.185999870300293 1.3500000238418579
    endloop
  endfacet
  facet normal 0 0 1
    outer loop
      vertex 34.520000457763672 5.2360000610351562 1.3500000238418579
      vertex 34.569999694824219 5.185999870300293 1.3500000238418579
      vertex 34.569999694824219 5.2360000610351562 1.3500000238418579
    endloop
  endfacet
  facet normal -0 -1 0
    outer loop
      vertex 34.130001068115234 5.185999870300293 1
      vertex 34.180000305175781 5.185999870300293 1
      vertex 34.180000305175781 5.185999870300293 1.3500000238418579
    endloop
  endfacet
  facet normal 0 -1 0
    outer loop
      vertex 34.130001068115234 5.185999870300293 1
      vertex 34.180000305175781 5.185999870300293 1.3500000238418579
      vertex 34.130001068115234 5.185999870300293 1.3500000238418579
    endloop
  endfacet
  facet normal 1 0 -0
    outer loop
      vertex 34.180000305175781 5.185999870300293 1
      vertex 34.180000305175781 5.2360000610351562 1
      vertex 34.180000305175781 5.2360000610351562 1.3500000238418579
    endloop
  endfacet
  facet normal 1 -0 0
    outer loop
      vertex 34.180000305175781 5.185999870300293 1
      vertex 34.180000305175781 5.2360000610351562 1.3500000238418579
      vertex 34.180000305175781 5.185999870300293 1.3500000238418579
    endloop
  endfacet
  facet normal -0 1 -0
    outer loop
      vertex 34.180000305175781 5.2360000610351562 1
      vertex 34.130001068115234 5.2360000610351562 1
      vertex 34.130001068115234 5.2360000610351562 1.3500000238418579
    endloop
  endfacet
  facet normal 0 1 0
    outer loop
      vertex 34.180000305175781 5.2360000610351562 1
      vertex 34.130001068115234 5.2360000610351562 1.3500000238418579
      vertex 34.180000305175781 5.2360000610351562 1.3500000238418579
    endloop
  endfacet
  facet normal -1 0 0
    outer loop
      vertex 34.130001068115234 5.2360000610351562 1
      vertex 34.130001068115234 5.185999870300293 1
      vertex 34.130001068115234 5.185999870300293 1.3500000238418579
    endloop
  endfacet
  facet normal -1 -0 0
    outer loop
      vertex 34.130001068115234 5.2360000610351562 1
      vertex 34.130001068115234 5.185999870300293 1.3500000238418579
      vertex 34.130001068115234 5.2360000610351562 1.3500000238418579
    endloop
  endfacet
  facet normal 0 0 -1
    outer loop
      vertex 34.180000305175781 5.185999870300293 1
      vertex 34.130001068115234 5.185999870300293 1
      vertex 34.130001068115234 5.2360000610351562 1
    endloop
  endfacet
  facet normal -0 -0 -1
    outer loop
      vertex 34.130001068115234 5.2360000610351562 1
      vertex 34.180000305175781 5.2360000610351562 1
      vertex 34.180000305175781 5.185999870300293 1
    endloop
  endfacet
  facet normal -0 -0 1
    outer loop
      vertex 34.180000305175781 5.185999870300293 1.3500000238418579
      vertex 34.130001068115234 5.2360000610351562 1.3500000238418579
      vertex 34.130001068115234 5.185999870300293 1.3500000238418579
    endloop
  endfacet
  facet normal 0 0 1
    outer loop
      vertex 34.130001068115234 5.2360000610351562 1.3500000238418579
      vertex 34.180000305175781 5.185999870300293 1.3500000238418579
      vertex 34.180000305175781 5.2360000610351562 1.3500000238418579
    endloop
  endfacet
  facet normal -0 -1 0
    outer loop
      vertex 33.740001678466797 5.185999870300293 1
      vertex 33.790000915527344 5.185999870300293 1
      vertex 33.790000915527344 5.185999870300293 1.3500000238418579
    endloop
  endfacet
  facet normal 0 -1 0
    outer loop
      vertex 33.740001678466797 5.185999870300293 1
      vertex 33.790000915527344 5.185999870300293 1.3500000238418579
      vertex 33.740001678466797 5.185999870300293 1.3500000238418579
    endloop
  endfacet
  facet normal 1 0 -0
    outer loop
      vertex 33.790000915527344 5.185999870300293 1
      vertex 33.790000915527344 5.2360000610351562 1
      vertex 33.790000915527344 5.2360000610351562 1.3500000238418579
    endloop
  endfacet
  facet normal 1 -0 0
    outer loop
      vertex 33.790000915527344 5.185999870300293 1
      vertex 33.790000915527344 5.2360000610351562 1.3500000238418579
      vertex 33.790000915527344 5.185999870300293 1.3500000238418579
    endloop
  endfacet
  facet normal -0 1 -0
    outer loop
      vertex 33.790000915527344 5.2360000610351562 1
      vertex 33.740001678466797 5.2360000610351562 1
      vertex 33.740001678466797 5.2360000610351562 1.3500000238418579
    endloop
  endfacet
  facet normal 0 1 0
    outer loop
      vertex 33.790000915527344 5.2360000610351562 1
      vertex 33.740001678466797 5.2360000610351562 1.3500000238418579
      vertex 33.790000915527344 5.2360000610351562 1.3500000238418579
    endloop
  endfacet
  facet normal -1 0 0
    outer loop
      vertex 33.740001678466797 5.2360000610351562 1
      vertex 33.740001678466797 5.185999870300293 1
      vertex 33.740001678466797 5.185999870300293 1.3500000238418579
    endloop
  endfacet
  facet normal -1 -0 0
    outer loop
      vertex 33.740001678466797 5.2360000610351562 1
      vertex 33.740001678466797 5.185999870300293 1.3500000238418579
      vertex 33.740001678466797 5.2360000610351562 1.3500000238418579
    endloop
  endfacet
  facet normal 0 0 -1
    outer loop
      vertex 33.790000915527344 5.185999870300293 1
      vertex 33.740001678466797 5.185999870300293 1
      vertex 33.740001678466797 5.2360000610351562 1
    endloop
  endfacet
  facet normal -0 -0 -1
    outer loop
      vertex 33.740001678466797 5.2360000610351562 1
      vertex 33.790000915527344 5.2360000610351562 1
      vertex 33.790000915527344 5.185999870300293 1
    endloop
  endfacet
  facet normal -0 -0 1
    outer loop
      vertex 33.790000915527344 5.185999870300293 1.3500000238418579
      vertex 33.740001678466797 5.2360000610351562 1.3500000238418579
      vertex 33.740001678466797 5.185999870300293 1.3500000238418579
    endloop
  endfacet
  facet normal 0 0 1
    outer loop
      vertex 33.740001678466797 5.2360000610351562 1.3500000238418579
      vertex 33.790000915527344 5.185999870300293 1.3500000238418579
      vertex 33.790000915527344 5.2360000610351562 1.3500000238418579
    endloop
  endfacet
  facet normal -0 -1 0
    outer loop
      vertex 34.909999847412109 4.5929999351501465 1
      vertex 34.959999084472656 4.5929999351501465 1
      vertex 34.959999084472656 4.5929999351501465 1.3500000238418579
    endloop
  endfacet
  facet normal 0 -1 0
    outer loop
      vertex 34.909999847412109 4.5929999351501465 1
      vertex 34.959999084472656 4.5929999351501465 1.3500000238418579
      vertex 34.909999847412109 4.5929999351501465 1.3500000238418579
    endloop
  endfacet
  facet normal 1 0 -0
    outer loop
      vertex 34.959999084472656 4.5929999351501465 1
      vertex 34.959999084472656 4.6430001258850098 1
      vertex 34.959999084472656 4.6430001258850098 1.3500000238418579
    endloop
  endfacet
  facet normal 1 -0 0
    outer loop
      vertex 34.959999084472656 4.5929999351501465 1
      vertex 34.959999084472656 4.6430001258850098 1.3500000238418579
      vertex 34.959999084472656 4.5929999351501465 1.3500000238418579
    endloop
  endfacet
  facet normal -0 1 -0
    outer loop
      vertex 34.959999084472656 4.6430001258850098 1
      vertex 34.909999847412109 4.6430001258850098 1
      vertex 34.909999847412109 4.6430001258850098 1.3500000238418579
    endloop
  endfacet
  facet normal 0 1 0
    outer loop
      vertex 34.959999084472656 4.6430001258850098 1
      vertex 34.909999847412109 4.6430001258850098 1.3500000238418579
      vertex 34.959999084472656 4.6430001258850098 1.3500000238418579
    endloop
  endfacet
  facet normal -1 0 0
    outer loop
      vertex 34.909999847412109 4.6430001258850098 1
      vertex 34.909999847412109 4.5929999351501465 1
      vertex 34.909999847412109 4.5929999351501465 1.3500000238418579
    endloop
  endfacet
  facet normal -1 -0 0
    outer loop
      vertex 34.909999847412109 4.6430001258850098 1
      vertex 34.909999847412109 4.5929999351501465 1.3500000238418579
      vertex 34.909999847412109 4.6430001258850098 1.3500000238418579
    endloop
  endfacet
  facet normal 0 0 -1
    outer loop
      vertex 34.959999084472656 4.5929999351501465 1
      vertex 34.909999847412109 4.5929999351501465 1
      vertex 34.909999847412109 4.6430001258850098 1
    endloop
  endfacet
  facet normal -0 -0 -1
    outer loop
      vertex 34.909999847412109 4.6430001258850098 1
      vertex 34.959999084472656 4.6430001258850098 1
      vertex 34.959999084472656 4.5929999351501465 1
    endloop
  endfacet
  facet normal -0 -0 1
    outer loop
      vertex 34.959999084472656 4.5929999351501465 1.3500000238418579
      vertex 34.909999847412109 4.6430001258850098 1.3500000238418579
      vertex 34.909999847412109 4.5929999351501465 1.3500000238418579
    endloop
  endfacet
  facet normal 0 0 1
    outer loop
      vertex 34.909999847412109 4.6430001258850098 1.3500000238418579
      vertex 34.959999084472656 4.5929999351501465 1.3500000238418579
      vertex 34.959999084472656 4.6430001258850098 1.3500000238418579
    endloop
  endfacet
  facet normal -0 -1 0
    outer loop
      vertex 34.520000457763672 4.5929999351501465 1
      vertex 34.569999694824219 4.5929999351501465 1
      vertex 34.569999694824219 4.5929999351501465 1.3500000238418579
    endloop
  endfacet
  facet normal 0 -1 0
    outer loop
      vertex 34.520000457763672 4.5929999351501465 1
      vertex 34.569999694824219 4.5929999351501465 1.3500000238418579
      vertex 34.520000457763672 4.5929999351501465 1.3500000238418579
    endloop
  endfacet
  facet normal 1 0 -0
    outer loop
      vertex 34.569999694824219 4.5929999351501465 1
      vertex 34.569999694824219 4.6430001258850098 1
      vertex 34.569999694824219 4.6430001258850098 1.3500000238418579
    endloop
  endfacet
  facet normal 1 -0 0
    outer loop
      vertex 34.569999694824219 4.5929999351501465 1
      vertex 34.569999694824219 4.6430001258850098 1.3500000238418579
      vertex 34.569999694824219 4.5929999351501465 1.3500000238418579
    endloop
  endfacet
  facet normal -0 1 -0
    outer loop
      vertex 34.569999694824219 4.6430001258850098 1
      vertex 34.520000457763672 4.6430001258850098 1
      vertex 34.520000457763672 4.6430001258850098 1.3500000238418579
    endloop
  endfacet
  facet normal 0 1 0
    outer loop
      vertex 34.569999694824219 4.6430001258850098 1
      vertex 34.520000457763672 4.6430001258850098 1.3500000238418579
      vertex 34.569999694824219 4.6430001258850098 1.3500000238418579
    endloop
  endfacet
  facet normal -1 0 0
    outer loop
      vertex 34.520000457763672 4.6430001258850098 1
      vertex 34.520000457763672 4.5929999351501465 1
      vertex 34.520000457763672 4.5929999351501465 1.3500000238418579
    endloop
  endfacet
  facet normal -1 -0 0
    outer loop
      vertex 34.520000457763672 4.6430001258850098 1
      vertex 34.520000457763672 4.5929999351501465 1.3500000238418579
      vertex 34.520000457763672 4.6430001258850098 1.3500000238418579
    endloop
  endfacet
  facet normal 0 0 -1
    outer loop
      vertex 34.569999694824219 4.5929999351501465 1
      vertex 34.520000457763672 4.5929999351501465 1
      vertex 34.520000457763672 4.6430001258850098 1
    endloop
  endfacet
  facet normal -0 -0 -1
    outer loop
      vertex 34.520000457763672 4.6430001258850098 1
      vertex 34.569999694824219 4.6430001258850098 1
      vertex 34.569999694824219 4.5929999351501465 1
    endloop
  endfacet
  facet normal -0 -0 1
    outer loop
      vertex 34.569999694824219 4.5929999351501465 1.3500000238418579
      vertex 34.520000457763672 4.6430001258850098 1.3500000238418579
      vertex 34.520000457763672 4.5929999351501465 1.3500000238418579
    endloop
  endfacet
  facet normal 0 0 1
    outer loop
      vertex 34.520000457763672 4.6430001258850098 1.3500000238418579
      vertex 34.569999694824219 4.5929999351501465 1.3500000238418579
      vertex 34.569999694824219 4.6430001258850098 1.3500000238418579
    endloop
  endfacet
  facet normal -0 -1 0
    outer loop
      vertex 34.130001068115234 4.5929999351501465 1
      vertex 34.180000305175781 4.5929999351501465 1
      vertex 34.180000305175781 4.5929999351501465 1.3500000238418579
    endloop
  endfacet
  facet normal 0 -1 0
    outer loop
      vertex 34.130001068115234 4.5929999351501465 1
      vertex 34.180000305175781 4.5929999351501465 1.3500000238418579
      vertex 34.130001068115234 4.5929999351501465 1.3500000238418579
    endloop
  endfacet
  facet normal 1 0 -0
    outer loop
      vertex 34.180000305175781 4.5929999351501465 1
      vertex 34.180000305175781 4.6430001258850098 1
      vertex 34.180000305175781 4.6430001258850098 1.3500000238418579
    endloop
  endfacet
  facet normal 1 -0 0
    outer loop
      vertex 34.180000305175781 4.5929999351501465 1
      vertex 34.180000305175781 4.6430001258850098 1.3500000238418579
      vertex 34.180000305175781 4.5929999351501465 1.3500000238418579
    endloop
  endfacet
  facet normal -0 1 -0
    outer loop
      vertex 34.180000305175781 4.6430001258850098 1
      vertex 34.130001068115234 4.6430001258850098 1
      vertex 34.130001068115234 4.6430001258850098 1.3500000238418579
    endloop
  endfacet
  facet normal 0 1 0
    outer loop
      vertex 34.180000305175781 4.6430001258850098 1
      vertex 34.130001068115234 4.6430001258850098 1.3500000238418579
      vertex 34.180000305175781 4.6430001258850098 1.3500000238418579
    endloop
  endfacet
  facet normal -1 0 0
    outer loop
      vertex 34.130001068115234 4.6430001258850098 1
      vertex 34.130001068115234 4.5929999351501465 1
      vertex 34.130001068115234 4.5929999351501465 1.3500000238418579
    endloop
  endfacet
  facet normal -1 -0 0
    outer loop
      vertex 34.130001068115234 4.6430001258850098 1
      vertex 34.130001068115234 4.5929999351501465 1.3500000238418579
      vertex 34.130001068115234 4.6430001258850098 1.3500000238418579
    endloop
  endfacet
  facet normal 0 0 -1
    outer loop
      vertex 34.180000305175781 4.5929999351501465 1
      vertex 34.130001068115234 4.5929999351501465 1
      vertex 34.130001068115234 4.6430001258850098 1
    endloop
  endfacet
  facet normal -0 -0 -1
    outer loop
      vertex 34.130001068115234 4.6430001258850098 1
      vertex 34.180000305175781 4.6430001258850098 1
      vertex 34.180000305175781 4.5929999351501465 1
    endloop
  endfacet
  facet normal -0 -0 1
    outer loop
      vertex 34.180000305175781 4.5929999351501465 1.3500000238418579
      vertex 34.130001068115234 4.6430001258850098 1.3500000238418579
      vertex 34.130001068115234 4.5929999351501465 1.3500000238418579
    endloop
  endfacet
  facet normal 0 0 1
    outer loop
      vertex 34.130001068115234 4.6430001258850098 1.3500000238418579
      vertex 34.180000305175781 4.5929999351501465 1.3500000238418579
      vertex 34.180000305175781 4.6430001258850098 1.3500000238418579
    endloop
  endfacet
  facet normal -0 -1 0
    outer loop
      vertex 33.740001678466797 4.5929999351501465 1
      vertex 33.790000915527344 4.5929999351501465 1
      vertex 33.790000915527344 4.5929999351501465 1.3500000238418579
    endloop
  endfacet
  facet normal 0 -1 0
    outer loop
      vertex 33.740001678466797 4.5929999351501465 1
      vertex 33.790000915527344 4.5929999351501465 1.3500000238418579
      vertex 33.740001678466797 4.5929999351501465 1.3500000238418579
    endloop
  endfacet
  facet normal 1 0 -0
    outer loop
      vertex 33.790000915527344 4.5929999351501465 1
      vertex 33.790000915527344 4.6430001258850098 1
      vertex 33.790000915527344 4.6430001258850098 1.3500000238418579
    endloop
  endfacet
  facet normal 1 -0 0
    outer loop
      vertex 33.790000915527344 4.5929999351501465 1
      vertex 33.790000915527344 4.6430001258850098 1.3500000238418579
      vertex 33.790000915527344 4.5929999351501465 1.3500000238418579
    endloop
  endfacet
  facet normal -0 1 -0
    outer loop
      vertex 33.790000915527344 4.6430001258850098 1
      vertex 33.740001678466797 4.6430001258850098 1
      vertex 33.740001678466797 4.6430001258850098 1.3500000238418579
    endloop
  endfacet
  facet normal 0 1 0
    outer loop
      vertex 33.790000915527344 4.6430001258850098 1
      vertex 33.740001678466797 4.6430001258850098 1.3500000238418579
      vertex 33.790000915527344 4.6430001258850098 1.3500000238418579
    endloop
  endfacet
  facet normal -1 0 0
    outer loop
      vertex 33.740001678466797 4.6430001258850098 1
      vertex 33.740001678466797 4.5929999351501465 1
      vertex 33.740001678466797 4.5929999351501465 1.3500000238418579
    endloop
  endfacet
  facet normal -1 -0 0
    outer loop
      vertex 33.740001678466797 4.6430001258850098 1
      vertex 33.740001678466797 4.5929999351501465 1.3500000238418579
      vertex 33.740001678466797 4.6430001258850098 1.3500000238418579
    endloop
  endfacet
  facet normal 0 0 -1
    outer loop
      vertex 33.790000915527344 4.5929999351501465 1
      vertex 33.740001678466797 4.5929999351501465 1
      vertex 33.740001678466797 4.6430001258850098 1
    endloop
  endfacet
  facet normal -0 -0 -1
    outer loop
      vertex 33.740001678466797 4.6430001258850098 1
      vertex 33.790000915527344 4.6430001258850098 1
      vertex 33.790000915527344 4.5929999351501465 1
    endloop
  endfacet
  facet normal -0 -0 1
    outer loop
      vertex 33.790000915527344 4.5929999351501465 1.3500000238418579
      vertex 33.740001678466797 4.6430001258850098 1.3500000238418579
      vertex 33.740001678466797 4.5929999351501465 1.3500000238418579
    endloop
  endfacet
  facet normal 0 0 1
    outer loop
      vertex 33.740001678466797 4.6430001258850098 1.3500000238418579
      vertex 33.790000915527344 4.5929999351501465 1.3500000238418579
      vertex 33.790000915527344 4.6430001258850098 1.3500000238418579
    endloop
  endfacet
  facet normal -0 -1 0
    outer loop
      vertex 34.909999847412109 4 1
      vertex 34.959999084472656 4 1
      vertex 34.959999084472656 4 1.3500000238418579
    endloop
  endfacet
  facet normal 0 -1 0
    outer loop
      vertex 34.909999847412109 4 1
      vertex 34.959999084472656 4 1.3500000238418579
      vertex 34.909999847412109 4 1.3500000238418579
    endloop
  endfacet
  facet normal 1 0 -0
    outer loop
      vertex 34.959999084472656 4 1
      vertex 34.959999084472656 4.0500001907348633 1
      vertex 34.959999084472656 4.0500001907348633 1.3500000238418579
    endloop
  endfacet
  facet normal 1 -0 0
    outer loop
      vertex 34.959999084472656 4 1
      vertex 34.959999084472656 4.0500001907348633 1.3500000238418579
      vertex 34.959999084472656 4 1.3500000238418579
    endloop
  endfacet
  facet normal -0 1 -0
    outer loop
      vertex 34.959999084472656 4.0500001907348633 1
      vertex 34.909999847412109 4.0500001907348633 1
      vertex 34.909999847412109 4.0500001907348633 1.3500000238418579
    endloop
  endfacet
  facet normal 0 1 0
    outer loop
      vertex 34.959999084472656 4.0500001907348633 1
      vertex 34.909999847412109 4.0500001907348633 1.3500000238418579
      vertex 34.959999084472656 4.0500001907348633 1.3500000238418579
    endloop
  endfacet
  facet normal -1 0 0
    outer loop
      vertex 34.909999847412109 4.0500001907348633 1
      vertex 34.909999847412109 4 1
      vertex 34.909999847412109 4 1.3500000238418579
    endloop
  endfacet
  facet normal -1 -0 0
    outer loop
      vertex 34.909999847412109 4.0500001907348633 1
      vertex 34.909999847412109 4 1.3500000238418579
      vertex 34.909999847412109 4.0500001907348633 1.3500000238418579
    endloop
  endfacet
  facet normal 0 0 -1
    outer loop
      vertex 34.959999084472656 4 1
      vertex 34.909999847412109 4 1
      vertex 34.909999847412109 4.0500001907348633 1
    endloop
  endfacet
  facet normal -0 -0 -1
    outer loop
      vertex 34.909999847412109 4.0500001907348633 1
      vertex 34.959999084472656 4.0500001907348633 1
      vertex 34.959999084472656 4 1
    endloop
  endfacet
  facet normal -0 -0 1
    outer loop
      vertex 34.959999084472656 4 1.3500000238418579
      vertex 34.909999847412109 4.0500001907348633 1.3500000238418579
      vertex 34.909999847412109 4 1.3500000238418579
    endloop
  endfacet
  facet normal 0 0 1
    outer loop
      vertex 34.909999847412109 4.0500001907348633 1.3500000238418579
      vertex 34.959999084472656 4 1.3500000238418579
      vertex 34.959999084472656 4.0500001907348633 1.3500000238418579
    endloop
  endfacet
  facet normal -0 -1 0
    outer loop
      vertex 34.130001068115234 4 1
      vertex 34.180000305175781 4 1
      vertex 34.180000305175781 4 1.3500000238418579
    endloop
  endfacet
  facet normal 0 -1 0
    outer loop
      vertex 34.130001068115234 4 1
      vertex 34.180000305175781 4 1.3500000238418579
      vertex 34.130001068115234 4 1.3500000238418579
    endloop
  endfacet
  facet normal 1 0 -0
    outer loop
      vertex 34.180000305175781 4 1
      vertex 34.180000305175781 4.0500001907348633 1
      vertex 34.180000305175781 4.0500001907348633 1.3500000238418579
    endloop
  endfacet
  facet normal 1 -0 0
    outer loop
      vertex 34.180000305175781 4 1
      vertex 34.180000305175781 4.0500001907348633 1.3500000238418579
      vertex 34.180000305175781 4 1.3500000238418579
    endloop
  endfacet
  facet normal -0 1 -0
    outer loop
      vertex 34.180000305175781 4.0500001907348633 1
      vertex 34.130001068115234 4.0500001907348633 1
      vertex 34.130001068115234 4.0500001907348633 1.3500000238418579
    endloop
  endfacet
  facet normal 0 1 0
    outer loop
      vertex 34.180000305175781 4.0500001907348633 1
      vertex 34.130001068115234 4.0500001907348633 1.3500000238418579
      vertex 34.180000305175781 4.0500001907348633 1.3500000238418579
    endloop
  endfacet
  facet normal -1 0 0
    outer loop
      vertex 34.130001068115234 4.0500001907348633 1
      vertex 34.130001068115234 4 1
      vertex 34.130001068115234 4 1.3500000238418579
    endloop
  endfacet
  facet normal -1 -0 0
    outer loop
      vertex 34.130001068115234 4.0500001907348633 1
      vertex 34.130001068115234 4 1.3500000238418579
      vertex 34.130001068115234 4.0500001907348633 1.3500000238418579
    endloop
  endfacet
  facet normal 0 0 -1
    outer loop
      vertex 34.180000305175781 4 1
      vertex 34.130001068115234 4 1
      vertex 34.130001068115234 4.0500001907348633 1
    endloop
  endfacet
  facet normal -0 -0 -1
    outer loop
      vertex 34.130001068115234 4.0500001907348633 1
      vertex 34.180000305175781 4.0500001907348633 1
      vertex 34.180000305175781 4 1
    endloop
  endfacet
  facet normal -0 -0 1
    outer loop
      vertex 34.180000305175781 4 1.3500000238418579
      vertex 34.130001068115234 4.0500001907348633 1.3500000238418579
      vertex 34.130001068115234 4 1.3500000238418579
    endloop
  endfacet
  facet normal 0 0 1
    outer loop
      vertex 34.130001068115234 4.0500001907348633 1.3500000238418579
      vertex 34.180000305175781 4 1.3500000238418579
      vertex 34.180000305175781 4.0500001907348633 1.3500000238418579
    endloop
  endfacet
  facet normal -0 -1 0
    outer loop
      vertex 33.740001678466797 4 1
      vertex 33.790000915527344 4 1
      vertex 33.790000915527344 4 1.3500000238418579
    endloop
  endfacet
  facet normal 0 -1 0
    outer loop
      vertex 33.740001678466797 4 1
      vertex 33.790000915527344 4 1.3500000238418579
      vertex 33.740001678466797 4 1.3500000238418579
    endloop
  endfacet
  facet normal 1 0 -0
    outer loop
      vertex 33.790000915527344 4 1
      vertex 33.790000915527344 4.0500001907348633 1
      vertex 33.790000915527344 4.0500001907348633 1.3500000238418579
    endloop
  endfacet
  facet normal 1 -0 0
    outer loop
      vertex 33.790000915527344 4 1
      vertex 33.790000915527344 4.0500001907348633 1.3500000238418579
      vertex 33.790000915527344 4 1.3500000238418579
    endloop
  endfacet
  facet normal -0 1 -0
    outer loop
      vertex 33.790000915527344 4.0500001907348633 1
      vertex 33.740001678466797 4.0500001907348633 1
      vertex 33.740001678466797 4.0500001907348633 1.3500000238418579
    endloop
  endfacet
  facet normal 0 1 0
    outer loop
      vertex 33.790000915527344 4.0500001907348633 1
      vertex 33.740001678466797 4.0500001907348633 1.3500000238418579
      vertex 33.790000915527344 4.0500001907348633 1.3500000238418579
    endloop
  endfacet
  facet normal -1 0 0
    outer loop
      vertex 33.740001678466797 4.0500001907348633 1
      vertex 33.740001678466797 4 1
      vertex 33.740001678466797 4 1.3500000238418579
    endloop
  endfacet
  facet normal -1 -0 0
    outer loop
      vertex 33.740001678466797 4.0500001907348633 1
      vertex 33.740001678466797 4 1.3500000238418579
      vertex 33.740001678466797 4.0500001907348633 1.3500000238418579
    endloop
  endfacet
  facet normal 0 0 -1
    outer loop
      vertex 33.790000915527344 4 1
      vertex 33.740001678466797 4 1
      vertex 33.740001678466797 4.0500001907348633 1
    endloop
  endfacet
  facet normal -0 -0 -1
    outer loop
      vertex 33.740001678466797 4.0500001907348633 1
      vertex 33.790000915527344 4.0500001907348633 1
      vertex 33.790000915527344 4 1
    endloop
  endfacet
  facet normal -0 -0 1
    outer loop
      vertex 33.790000915527344 4 1.3500000238418579
      vertex 33.740001678466797 4.0500001907348633 1.3500000238418579
      vertex 33.740001678466797 4 1.3500000238418579
    endloop
  endfacet
  facet normal 0 0 1
    outer loop
      vertex 33.740001678466797 4.0500001907348633 1.3500000238418579
      vertex 33.790000915527344 4 1.3500000238418579
      vertex 33.790000915527344 4.0500001907348633 1.3500000238418579
    endloop
  endfacet
endsolid OBJECT
