solid OBJECT
  facet normal -0 0 1
    outer loop
      vertex 34.959999084472656 5.8299999237060547 1.3500000238418579
      vertex 33.740001678466797 5.8299999237060547 1.3500000238418579
      vertex 33.740001678466797 4 1.3500000238418579
    endloop
  endfacet
  facet normal 0 0 1
    outer loop
      vertex 34.959999084472656 5.8299999237060547 1.3500000238418579
      vertex 33.740001678466797 4 1.3500000238418579
      vertex 34.959999084472656 4 1.3500000238418579
    endloop
  endfacet
endsolid OBJECT
