solid OBJECT
  facet normal 0 -1 -0
    outer loop
      vertex 1.5 -0.090000003576278687 0.20000000298023224
      vertex 2 -0.090000003576278687 0.20000000298023224
      vertex 2 -0.090000003576278687 0.69999998807907104
    endloop
  endfacet
  facet normal 0 -1 -0
    outer loop
      vertex 1.5 -0.090000003576278687 0.20000000298023224
      vertex 2 -0.090000003576278687 0.69999998807907104
      vertex 1.5 -0.090000003576278687 0.69999998807907104
    endloop
  endfacet
  facet normal 1 -0 0
    outer loop
      vertex 2 -0.090000003576278687 0.20000000298023224
      vertex 2 0.40999999642372131 0.20000000298023224
      vertex 2 0.40999999642372131 0.69999998807907104
    endloop
  endfacet
  facet normal 1 -0 0
    outer loop
      vertex 2 -0.090000003576278687 0.20000000298023224
      vertex 2 0.40999999642372131 0.69999998807907104
      vertex 2 -0.090000003576278687 0.69999998807907104
    endloop
  endfacet
  facet normal 0 1 0
    outer loop
      vertex 2 0.40999999642372131 0.20000000298023224
      vertex 1.5 0.40999999642372131 0.20000000298023224
      vertex 1.5 0.40999999642372131 0.69999998807907104
    endloop
  endfacet
  facet normal 0 1 0
    outer loop
      vertex 2 0.40999999642372131 0.20000000298023224
      vertex 1.5 0.40999999642372131 0.69999998807907104
      vertex 2 0.40999999642372131 0.69999998807907104
    endloop
  endfacet
  facet normal -1 -0 -0
    outer loop
      vertex 1.5 0.40999999642372131 0.20000000298023224
      vertex 1.5 -0.090000003576278687 0.20000000298023224
      vertex 1.5 -0.090000003576278687 0.69999998807907104
    endloop
  endfacet
  facet normal -1 -0 -0
    outer loop
      vertex 1.5 0.40999999642372131 0.20000000298023224
      vertex 1.5 -0.090000003576278687 0.69999998807907104
      vertex 1.5 0.40999999642372131 0.69999998807907104
    endloop
  endfacet
  facet normal -0 -0 -1
    outer loop
      vertex 2 -0.090000003576278687 0.20000000298023224
      vertex 1.5 -0.090000003576278687 0.20000000298023224
      vertex 1.5 0.40999999642372131 0.20000000298023224
    endloop
  endfacet
  facet normal 0 0 -1
    outer loop
      vertex 1.5 0.40999999642372131 0.20000000298023224
      vertex 2 0.40999999642372131 0.20000000298023224
      vertex 2 -0.090000003576278687 0.20000000298023224
    endloop
  endfacet
  facet normal 0 -0 1
    outer loop
      vertex 2 -0.090000003576278687 0.69999998807907104
      vertex 1.5 0.40999999642372131 0.69999998807907104
      vertex 1.5 -0.090000003576278687 0.69999998807907104
    endloop
  endfacet
  facet normal 0 0 1
    outer loop
      vertex 1.5 0.40999999642372131 0.69999998807907104
      vertex 2 -0.090000003576278687 0.69999998807907104
      vertex 2 0.40999999642372131 0.69999998807907104
    endloop
  endfacet
endsolid OBJECT
